<svg xmlns="http://www.w3.org/2000/svg" viewBox="0 0 3970 2000"><defs><style>.cls-1{isolation:isolate;}.cls-2{fill:#9c4e9e;opacity:0.21;}.cls-3{fill:#4188e4;}.cls-4{fill:#142666;}.cls-5{fill:#afdbfe;}.cls-6{fill:#fff;}.cls-7{fill:#70c0fd;}.cls-8{fill:#a2cff6;}.cls-9{fill:#b0c1ec;}.cls-10{fill:#ffc0bb;}.cls-11{fill:#884e82;}.cls-12{fill:#3d3a55;}.cls-13{fill:#09083c;}.cls-14{fill:#e87b50;}.cls-14,.cls-36{opacity:0.3;}.cls-14,.cls-28,.cls-36{mix-blend-mode:multiply;}.cls-15{fill:#7e4a9d;}.cls-16{fill:#662c8c;}.cls-17{fill:#7c5ba6;}.cls-18{fill:#2b1c35;}.cls-19{fill:#fc8d84;opacity:0.6;}.cls-20{fill:#fee4cb;}.cls-21,.cls-36{fill:#f99893;}.cls-22{fill:#333;}.cls-23{fill:#07085b;}.cls-24{fill:#feb546;}.cls-25{fill:#452b52;}.cls-26{fill:#daeef7;}.cls-27,.cls-28{fill:#e03268;}.cls-28{opacity:0.5;}.cls-29{fill:#c1215b;}.cls-30{fill:#d481b6;}.cls-31{fill:#ff85a5;}.cls-32{fill:#3a2645;}.cls-33{fill:#f7aeaa;}.cls-34{fill:#ff6088;}.cls-35{fill:#030321;}.cls-37{fill:#02ccc0;}.cls-38{fill:#f9537f;}.cls-39{fill:#050849;}.cls-40{fill:#f4a640;}.cls-41{fill:#ed9935;}</style></defs><title>landing</title><g class="cls-1"><g id="Layer_1" data-name="Layer 1"><path class="cls-2" d="M3285.4,106.43c-437.25-201.26-691,128.42-1165.2,162.73S1560.12,72.37,1098,126.66C684.18,175.27,546.73,485.55,355.3,821.76s-219.87,222.4-306.89,554S331.76,2000,331.76,2000H3483.24c187.09-13.72,364.87-196.47,374.29-475.54,18.06-534.93-180.56-523.75-189.26-754.75s54.38-462-382.87-663.28Z"/><rect class="cls-3" x="633.38" y="506.67" width="639.96" height="1336.78" rx="19"/><rect class="cls-4" x="671.77" y="615.68" width="563.33" height="301.65"/><rect class="cls-4" x="671.77" y="944.81" width="563.33" height="301.65"/><rect class="cls-4" x="671.77" y="1273.94" width="563.33" height="301.65"/><rect class="cls-3" x="1392.69" y="506.67" width="1143.7" height="1336.78" rx="19"/><rect class="cls-4" x="1461.28" y="615.68" width="1006.76" height="301.65"/><rect class="cls-4" x="1461.28" y="944.81" width="1006.76" height="301.65"/><rect class="cls-4" x="1461.28" y="1273.94" width="1006.76" height="301.65"/><rect class="cls-5" x="1985.42" y="1475.5" width="31" height="169.19" transform="translate(440.83 3561.02) rotate(-90)"/><rect class="cls-6" x="2001.59" y="1455.15" width="27.57" height="151.32" transform="translate(484.56 3546.18) rotate(-90)"/><rect class="cls-7" x="1978.26" y="1427.58" width="27.57" height="151.32" transform="translate(488.8 3495.28) rotate(-90)"/><rect class="cls-5" x="2199.78" y="1386.68" width="34.43" height="188.92"/><rect class="cls-7" x="2242.37" y="1418.67" width="27.18" height="156.93"/><rect class="cls-5" x="2120.2" y="1386.68" width="34.43" height="188.92"/><rect class="cls-7" x="2162.78" y="1418.67" width="27.18" height="156.93"/><rect class="cls-5" x="1557.66" y="1424.7" width="60.1" height="150.89"/><rect class="cls-6" x="1530.48" y="1439.49" width="16.91" height="136.1"/><rect class="cls-7" x="1498.16" y="1417.76" width="26.88" height="157.83"/><rect class="cls-7" x="1860.29" y="1417.76" width="26.88" height="157.83"/><rect class="cls-6" x="1666.69" y="1439.49" width="54.67" height="136.1"/><rect class="cls-5" x="1727.09" y="1386.68" width="34.43" height="188.92"/><rect class="cls-7" x="1769.68" y="1418.67" width="27.18" height="156.93"/><rect class="cls-7" x="1624.71" y="1407.5" width="31.71" height="168.09"/><rect class="cls-6" x="1802.3" y="1434.06" width="49.83" height="141.54"/><rect class="cls-6" x="734.66" y="1439.38" width="16.91" height="136.11"/><rect class="cls-8" x="702.35" y="1417.65" width="26.88" height="157.83"/><rect class="cls-5" x="1157.49" y="1424.59" width="60.1" height="150.89"/><rect class="cls-6" x="1130.31" y="1439.38" width="16.91" height="136.11"/><rect class="cls-7" x="1097.99" y="1417.65" width="26.88" height="157.83"/><rect class="cls-5" x="959.07" y="1386.57" width="34.43" height="188.92"/><rect class="cls-9" x="829.88" y="1475.39" width="31" height="169.19" transform="translate(-714.6 2405.37) rotate(-90)"/><rect class="cls-6" x="846.05" y="1455.04" width="27.57" height="151.32" transform="translate(-670.87 2390.54) rotate(-90)"/><rect class="cls-8" x="822.71" y="1427.47" width="27.57" height="151.32" transform="translate(-666.64 2339.63) rotate(-90)"/><rect class="cls-7" x="1001.65" y="1418.56" width="27.18" height="156.93"/><rect class="cls-6" x="1040.01" y="1433.95" width="49.83" height="141.54"/><rect class="cls-6" x="1510.61" y="781.23" width="16.91" height="136.11"/><rect class="cls-7" x="1478.3" y="759.5" width="26.88" height="157.83"/><rect class="cls-5" x="1933.44" y="766.44" width="60.1" height="150.89"/><rect class="cls-6" x="1906.26" y="781.23" width="16.91" height="136.11"/><rect class="cls-7" x="1873.94" y="759.5" width="26.88" height="157.83"/><rect class="cls-5" x="1735.02" y="728.42" width="34.43" height="188.92"/><rect class="cls-5" x="1605.83" y="817.24" width="31" height="169.19" transform="translate(719.5 2523.17) rotate(-90)"/><rect class="cls-6" x="1622" y="796.89" width="27.57" height="151.32" transform="translate(763.23 2508.34) rotate(-90)"/><rect class="cls-7" x="1598.66" y="769.32" width="27.57" height="151.32" transform="translate(767.46 2457.43) rotate(-90)"/><rect class="cls-7" x="1777.6" y="760.41" width="27.18" height="156.93"/><rect class="cls-6" x="1815.96" y="775.8" width="49.83" height="141.54"/><rect class="cls-6" x="2730.55" y="764.12" width="16.91" height="136.1"/><rect class="cls-7" x="2698.23" y="742.39" width="26.88" height="157.83"/><rect class="cls-7" x="3093.87" y="742.39" width="26.88" height="157.83"/><rect class="cls-5" x="2954.95" y="711.31" width="34.43" height="188.92"/><rect class="cls-5" x="2825.77" y="800.13" width="31" height="169.19" transform="translate(1956.54 3725.99) rotate(-90)"/><rect class="cls-6" x="2841.93" y="779.78" width="27.57" height="151.32" transform="translate(2000.28 3711.16) rotate(-90)"/><rect class="cls-8" x="2818.6" y="752.21" width="27.57" height="151.32" transform="translate(2004.51 3660.25) rotate(-90)"/><rect class="cls-7" x="2997.53" y="743.3" width="27.18" height="156.93"/><rect class="cls-6" x="3035.89" y="758.69" width="49.83" height="141.54"/><rect class="cls-5" x="2317.36" y="728.42" width="34.43" height="188.92"/><rect class="cls-7" x="2359.95" y="760.41" width="27.18" height="156.93"/><rect class="cls-6" x="2398.3" y="775.8" width="49.83" height="141.54"/><rect class="cls-5" x="761.84" y="766.44" width="60.1" height="150.89"/><rect class="cls-6" x="734.66" y="781.23" width="16.91" height="136.11"/><rect class="cls-7" x="702.35" y="759.5" width="26.88" height="157.83"/><rect class="cls-5" x="1129.7" y="766.44" width="60.1" height="150.89"/><rect class="cls-6" x="1102.52" y="781.23" width="16.91" height="136.11"/><rect class="cls-7" x="1070.2" y="759.5" width="26.88" height="157.83"/><rect class="cls-6" x="870.87" y="781.23" width="54.67" height="136.11"/><rect class="cls-5" x="931.28" y="728.42" width="34.43" height="188.92"/><rect class="cls-7" x="973.86" y="760.41" width="27.18" height="156.93"/><rect class="cls-7" x="828.89" y="749.24" width="31.71" height="168.09"/><rect class="cls-5" x="2068.34" y="766.44" width="60.1" height="150.89"/><rect class="cls-6" x="2041.16" y="781.23" width="16.91" height="136.11"/><rect class="cls-7" x="2008.85" y="759.5" width="26.88" height="157.83"/><rect class="cls-6" x="2177.37" y="781.23" width="54.67" height="136.11"/><rect class="cls-5" x="2237.78" y="728.42" width="34.43" height="188.92"/><rect class="cls-7" x="2280.36" y="760.41" width="27.18" height="156.93"/><rect class="cls-7" x="2135.39" y="749.24" width="31.71" height="168.09"/><rect class="cls-5" x="2806.98" y="440.99" width="34.43" height="188.92"/><rect class="cls-7" x="2849.56" y="472.98" width="27.18" height="156.93"/><rect class="cls-6" x="2887.92" y="488.37" width="49.83" height="141.54"/><rect class="cls-6" x="2666.99" y="493.8" width="54.67" height="136.11"/><rect class="cls-5" x="2727.39" y="440.99" width="34.43" height="188.92"/><rect class="cls-7" x="2769.98" y="472.98" width="27.18" height="156.93"/><rect class="cls-7" x="2625.01" y="461.82" width="31.71" height="168.09"/><rect class="cls-5" x="2187.01" y="1095.57" width="60.1" height="150.89"/><rect class="cls-6" x="2159.83" y="1110.36" width="16.91" height="136.1"/><rect class="cls-7" x="2127.51" y="1088.63" width="26.88" height="157.83"/><rect class="cls-5" x="2321.92" y="1095.57" width="60.1" height="150.89"/><rect class="cls-6" x="2294.73" y="1110.36" width="16.91" height="136.1"/><rect class="cls-7" x="2262.42" y="1088.63" width="26.88" height="157.83"/><rect class="cls-7" x="2388.97" y="1078.37" width="31.71" height="168.09"/><rect class="cls-6" x="1012.22" y="775.8" width="49.83" height="141.54"/><rect class="cls-5" x="1557.66" y="1095.57" width="60.1" height="150.89"/><rect class="cls-6" x="1530.48" y="1110.36" width="16.91" height="136.1"/><rect class="cls-7" x="1498.16" y="1088.63" width="26.88" height="157.83"/><rect class="cls-5" x="1925.52" y="1095.57" width="60.1" height="150.89"/><rect class="cls-6" x="1898.33" y="1110.36" width="16.91" height="136.1"/><rect class="cls-7" x="1866.02" y="1088.63" width="26.88" height="157.83"/><rect class="cls-6" x="1666.69" y="1110.36" width="54.67" height="136.1"/><rect class="cls-5" x="1727.09" y="1057.55" width="34.43" height="188.92"/><rect class="cls-7" x="1769.68" y="1089.54" width="27.18" height="156.93"/><rect class="cls-7" x="1624.71" y="1078.37" width="31.71" height="168.09"/><rect class="cls-6" x="1808.03" y="1104.93" width="49.83" height="141.54"/><rect class="cls-6" x="761.84" y="1081.77" width="60.1" height="164.69"/><rect class="cls-7" x="734.66" y="1110.36" width="16.91" height="136.1"/><rect class="cls-5" x="702.35" y="1088.63" width="26.88" height="157.83"/><rect class="cls-7" x="1102.52" y="1110.36" width="16.91" height="136.1"/><rect class="cls-6" x="1070.2" y="1071.59" width="26.88" height="174.87"/><rect class="cls-7" x="870.87" y="1071.59" width="54.67" height="174.87"/><rect class="cls-6" x="931.28" y="1095.57" width="34.43" height="150.89"/><rect class="cls-5" x="973.86" y="1047.84" width="27.18" height="198.62"/><rect class="cls-5" x="828.89" y="1099.59" width="31.71" height="146.88"/><rect class="cls-7" x="1012.22" y="1078.37" width="49.83" height="168.09"/><rect class="cls-6" x="1138.61" y="1075.45" width="49.83" height="168.11" transform="translate(-322.03 458.53) rotate(-19.64)"/><rect class="cls-6" x="2010.13" y="1075.45" width="49.83" height="168.11" transform="translate(-271.33 751.46) rotate(-19.64)"/><rect class="cls-7" x="2063.55" y="1079.07" width="24.91" height="168.11" transform="translate(-270.15 765.35) rotate(-19.64)"/><rect class="cls-7" x="2959.04" y="461.81" width="24.91" height="168.11" transform="translate(-10.59 1030.57) rotate(-19.64)"/><polygon class="cls-10" points="2798.67 1908.29 2792.38 1958.78 2758.5 1961.4 2759.02 1914.58 2798.67 1908.29"/><polygon class="cls-11" points="2201.44 1428.75 2529.32 1428.75 2493.5 1676.48 2222.89 1632.43 2201.44 1428.75"/><path class="cls-12" d="M2707,1998.36l92.56.62a3.55,3.55,0,0,0,3.63-3.55l0-2.66a3.68,3.68,0,0,0-3.69-3.6l-92.56-.63a3.56,3.56,0,0,0-3.63,3.55l0,2.67A3.69,3.69,0,0,0,2707,1998.36Z"/><path class="cls-13" d="M2798.32,1959.33l3.55,27.33c.43,3.37-1.47,6.41-4,6.4l-88-.6a6.51,6.51,0,0,1-5.78-4c-1.26-2.69-1.54-6.74,2.35-12.16,7.79-10.82,33.66-13.3,46.24-22.5l41,.27C2796,1954,2797.92,1956.29,2798.32,1959.33Z"/><path class="cls-6" d="M2759,1969.64h0a1.78,1.78,0,0,0,.48-2.22c-1.76-3.75-7.24-12.9-18.21-11.1a1.52,1.52,0,0,0-.95,1.78v0c.11.83.69,1.37,1.3,1.27,9.84-1.57,14.5,6.49,15.93,9.63C2757.88,1969.69,2758.5,1970,2759,1969.64Z"/><path class="cls-6" d="M2749.91,1973.1h0a1.79,1.79,0,0,0,.48-2.22c-1.76-3.76-7.24-12.9-18.22-11.11a1.52,1.52,0,0,0-.94,1.78v0c.11.82.69,1.36,1.3,1.26,9.83-1.57,14.5,6.49,15.92,9.63C2748.77,1973.14,2749.39,1973.41,2749.91,1973.1Z"/><path class="cls-6" d="M2741.44,1976.32h0a1.79,1.79,0,0,0,.48-2.22c-1.76-3.76-7.24-12.9-18.22-11.1a1.5,1.5,0,0,0-.94,1.77v0c.12.82.69,1.36,1.31,1.27,9.83-1.58,14.5,6.48,15.92,9.63A1,1,0,0,0,2741.44,1976.32Z"/><path class="cls-14" d="M2774.38,1992.9c6.74-22,18.67-24.37,25.2-23.81l2.29,17.57c.43,3.37-1.47,6.41-4,6.4Z"/><polygon class="cls-10" points="2949.56 1905.14 2952.43 1958.09 2917.95 1958.32 2914.66 1909.37 2949.56 1905.14"/><path class="cls-12" d="M2868.42,1999.26l92.56.63a3.57,3.57,0,0,0,3.64-3.56l0-2.66a3.68,3.68,0,0,0-3.69-3.6l-92.56-.63a3.56,3.56,0,0,0-3.63,3.56l0,2.66A3.68,3.68,0,0,0,2868.42,1999.26Z"/><path class="cls-13" d="M2959.73,1960.24l3.55,27.32c.43,3.37-1.47,6.42-4,6.4l-88-.59a6.54,6.54,0,0,1-5.78-4.06c-1.26-2.69-1.54-6.74,2.35-12.15,7.79-10.83,33.65-13.31,46.24-22.51l41,.28C2957.36,1954.94,2959.33,1957.19,2959.73,1960.24Z"/><path class="cls-6" d="M2920.43,1970.55h0a1.81,1.81,0,0,0,.48-2.23c-1.76-3.75-7.24-12.89-18.22-11.1a1.52,1.52,0,0,0-.94,1.78v0c.11.82.68,1.36,1.3,1.26,9.83-1.57,14.5,6.49,15.92,9.63C2919.29,1970.59,2919.91,1970.86,2920.43,1970.55Z"/><path class="cls-6" d="M2911.32,1974h0a1.79,1.79,0,0,0,.48-2.22c-1.76-3.75-7.24-12.9-18.22-11.1-.63.1-1,.92-.94,1.77v0c.11.82.68,1.37,1.3,1.27,9.83-1.58,14.5,6.48,15.92,9.63A1,1,0,0,0,2911.32,1974Z"/><path class="cls-6" d="M2902.85,1977.22h0a1.81,1.81,0,0,0,.48-2.22c-1.76-3.75-7.24-12.9-18.22-11.1a1.5,1.5,0,0,0-.94,1.77v0c.11.83.69,1.37,1.3,1.27,9.84-1.58,14.5,6.48,15.93,9.63A1,1,0,0,0,2902.85,1977.22Z"/><path class="cls-14" d="M2935.79,1993.8c6.74-22,18.67-24.37,25.2-23.81l2.29,17.57c.43,3.37-1.47,6.42-4,6.4Z"/><path class="cls-12" d="M2263.14,1809.72H3384.7a3.78,3.78,0,0,1,3.78,3.78V1825a3.79,3.79,0,0,1-3.79,3.79H2263.14a3.78,3.78,0,0,1-3.78-3.78v-11.52A3.78,3.78,0,0,1,2263.14,1809.72Z"/><path class="cls-15" d="M3456.6,1262.37c-4.22.29-730.25.09-968.76,0a74.9,74.9,0,0,0-75,74.89V1643h897.53l139.23-139.12Z"/><rect class="cls-16" x="3419.86" y="1262.37" width="73.48" height="287.28" rx="14.56" transform="translate(6913.21 2812.01) rotate(180)"/><rect class="cls-17" x="2222.89" y="1597.29" width="922.21" height="183.38" transform="translate(5368 3377.95) rotate(180)"/><path class="cls-18" d="M2940.91,1528.49s-170.06.62-196.3,34.71-46.19,264.32,0,365c0,0,59.84,2.1,73.48-6.29,0,0-4.2-169.93-2.1-215s33.6-51.4,37.79-55.59S2940.91,1528.49,2940.91,1528.49Z"/><polygon class="cls-10" points="3201.41 1175.48 3207.86 1227.79 3155.97 1226.01 3157.46 1166.15 3201.41 1175.48"/><path class="cls-19" d="M3156.78,1193.71l.68-27.56,44.59,14.28,1.25,10.33C3193.41,1194.46,3174.61,1199,3156.78,1193.71Z"/><polygon class="cls-20" points="3094.9 1092.65 3101.61 1128.33 3108.1 1130.25 3106.48 1084.99 3094.9 1092.65"/><path class="cls-21" d="M3111,1121.83c3.71,7.47,1.87,15.94-4.12,18.91s-13.86-.68-17.58-8.15-1.87-15.93,4.12-18.9S3107.31,1114.36,3111,1121.83Z"/><path class="cls-10" d="M3116.57,1166.74a63.25,63.25,0,0,1-5.63-10.18,119.12,119.12,0,0,1-8.64-29.13c-.34-2-.79-3.89-1.27-5.81A64.67,64.67,0,1,1,3228.24,1101c3.87-2.54,8.36-3.39,12.48-1.91,7.91,2.84,11.42,13.15,7.86,23s-12.88,15.56-20.78,12.72a12.74,12.74,0,0,1-3-1.61c-.89,31.75-25,58-56,59.79a58,58,0,0,1-40.47-13.39,28.3,28.3,0,0,1-2.33-1.88A55.8,55.8,0,0,1,3116.57,1166.74Z"/><path class="cls-22" d="M3170.74,1110.86a5.64,5.64,0,1,0,5.31-5.95A5.62,5.62,0,0,0,3170.74,1110.86Z"/><path class="cls-22" d="M3122.51,1116.83a5.65,5.65,0,1,0,5.32-5.95A5.64,5.64,0,0,0,3122.51,1116.83Z"/><path class="cls-23" d="M3163.29,1100.1a54.53,54.53,0,0,1,7.89-3.13,28,28,0,0,1,7.81-1.2,25.83,25.83,0,0,1,7.79,1.07l1,.25c.33.09.64.24,1,.35l2,.69c1.33.5,2.59,1.16,4.06,1.63a25.59,25.59,0,0,0-3-3.34,20,20,0,0,0-3.78-2.55,18.4,18.4,0,0,0-9-2.19,19.24,19.24,0,0,0-9,2.35A17.93,17.93,0,0,0,3163.29,1100.1Z"/><path class="cls-23" d="M3140.68,1102.57a17.83,17.83,0,0,0-7.8-4.51,19.3,19.3,0,0,0-9.29-.35,18.47,18.47,0,0,0-8.36,4.08,20.51,20.51,0,0,0-3.14,3.32,24,24,0,0,0-2.22,3.9c1.33-.77,2.41-1.69,3.61-2.46l1.78-1.1c.3-.18.56-.39.87-.55l.91-.46a26.25,26.25,0,0,1,7.38-2.73,28.27,28.27,0,0,1,7.88-.5A53.06,53.06,0,0,1,3140.68,1102.57Z"/><path class="cls-23" d="M3085.88,1050.23s-19.33,1.58.19-15.76,73.13-39.18,109-22.49c0,0,6.26-15.17,16.54-12.13s-5.9,14.07-5.9,14.07,12.89-1.06,17.13,5.07c3.14,4.52-4.75,5.12-9.08,5.12,7.41.88,32.08,13.86,20.71,71.23-5.07-.86-45.64-34.11-45.64-34.11s-53.07,35.39-46.84,16.55c0,0-63.3,36-55.38.64C3086.6,1078.42,3060.46,1081.63,3085.88,1050.23Z"/><path class="cls-21" d="M3149.4,1101.08A43.63,43.63,0,0,1,3152,1113a33.29,33.29,0,0,1,0,6.23,15.67,15.67,0,0,1-2,6.42l-.56.77-.51.67a6.33,6.33,0,0,0-.68.91,4.59,4.59,0,0,0-.72,2,5.5,5.5,0,0,0,1.48,4.15c2.23,2.61,6.05,4,10,4.65-3.9.89-8.57.54-12.14-2.52a8.25,8.25,0,0,1-3-6.51,6.49,6.49,0,0,1,.33-1.91,7.17,7.17,0,0,1,.75-1.75,9.12,9.12,0,0,1,1.07-1.51c.23-.28.27-.37.39-.53l.31-.43a14.81,14.81,0,0,0,1.62-4.89,51.62,51.62,0,0,0,.65-5.68C3149.23,1109.09,3149.27,1105.13,3149.4,1101.08Z"/><path class="cls-23" d="M3188.82,1061.23s22.43,35.41,22.93,56.35c0,0,9.47-18.76,25.09-19.24,0,0,5.08-35.27-4.46-57.31l-35.28,7.55Z"/><path class="cls-24" d="M3143.51,1206s15.75,24.65,68.23,0c0,0,95-26.22,102.35,86.54l3.68,104.89s-49.08.17-74.27,1.1l-.79,22L3099.42,1537s-85-7.34-102.35-15.73c0,0,30.45-60.31,35.17-74s8.13-145.27,13.12-158.91S3065,1207.91,3143.51,1206Z"/><path class="cls-25" d="M3073,1285a60.93,60.93,0,0,0-4.75,9.87c-.72,1.67-1.27,3.41-1.92,5.12l-1.63,5.21a158.62,158.62,0,0,0-4.69,21.34c-1.29,7.18-1.88,14.47-2.5,21.74-.26,3.65-.41,7.3-.62,11s-.16,7.32-.33,11c-.24-3.66-.35-7.33-.53-11,0-3.66,0-7.34.12-11a192.48,192.48,0,0,1,2.12-22,139.9,139.9,0,0,1,5.13-21.46C3065.74,1297.82,3068.57,1290.9,3073,1285Z"/><path class="cls-26" d="M2991.74,1363.07c-1.29,0-53.25-31.42-53.25-31.42l-9.71,2.06,3.45,2.55-5.81-1.46-9.45,1.46s31.23,36.82,31.76,37.87,14.17,6.3,15.22,6.82S2991.74,1363.07,2991.74,1363.07Z"/><path class="cls-26" d="M3074.89,1338l-4.72-3-2.17,1.48v-2.76l-2.95-2.06-75.58,29.89s24.21,15.35,25,14.75,43.9-8.45,44.68-9.63S3074.89,1338,3074.89,1338Z"/><path class="cls-27" d="M3073.7,1336.55,2988,1364.27l-69.08-30a5.94,5.94,0,0,0-8.28,6.1L2923.83,1458a5.92,5.92,0,0,0,3.13,4.59l66.33,34.94,60.08-22.22,1.55-2.27,7.78-1.18,25.2-9.32a5.35,5.35,0,0,0,3.46-5.46l-9.91-115.37A5.94,5.94,0,0,0,3073.7,1336.55Z"/><path class="cls-28" d="M3073.7,1336.55a5.94,5.94,0,0,1,7.75,5.14l9.89,115.22a5.51,5.51,0,0,1-3.59,5.66l-25.05,9.27-7.78,1.18-1.55,2.27-54.78,19.62L2988,1364.27Z"/><polygon class="cls-29" points="2975.24 1378.33 2921.83 1354.99 2923.53 1379.25 2975.89 1403.5 2975.24 1378.33"/><path class="cls-10" d="M3102.31,1454.85c.23-.78.7-1.9-.36-2.69l-.87-.58a25.45,25.45,0,0,1-9.28-10.87,19.39,19.39,0,0,0-1.6-3.35c-.41-.48-.52.2-.52.2l1,11-12.77,4.65s-22.37,3.52-33.39-1.33c0,0-5.77-4.06-3.94,3.28a4.36,4.36,0,0,0,1.16,1.95c-.81.5-1.69,1.79-.11,6.74a3.37,3.37,0,0,0,.24.56c-.4,2.94-.09,6.63,3.16,8.61a9.1,9.1,0,0,0,6.65,6.23c5.7,1.64,18.74,3.46,27,4.51,7.23,1.11,12.45,1.61,15.33,1l3,.49c0-.8,7.84-12,8.67-16.81S3101,1459.52,3102.31,1454.85Z"/><path class="cls-10" d="M3102,1452.16s77.51-4,99.17-11.42,41.59-20.2,41.59-20.2v-22l73.54-1.1s9.26,67.31-11.6,75.18-164.25,20.45-210.7,12.19Z"/><path class="cls-21" d="M3041.69,1464a17.21,17.21,0,0,0,4.83,3.71,26.42,26.42,0,0,0,5.7,2.25,30.94,30.94,0,0,0,6.05.92c1,.07,2,0,3.05,0s2-.16,3-.29c-2-.09-4-.16-6-.41a46.66,46.66,0,0,1-5.89-1.1,36.45,36.45,0,0,1-5.62-2A24.73,24.73,0,0,1,3041.69,1464Z"/><path class="cls-21" d="M3045,1473a17.34,17.34,0,0,0,5.11,3.31,26,26,0,0,0,5.86,1.8,30.4,30.4,0,0,0,6.1.43c1,0,2-.14,3-.21s2-.32,3-.52c-2,.06-4,.15-6,.05a45.63,45.63,0,0,1-5.95-.62,37.41,37.41,0,0,1-5.76-1.55A25.15,25.15,0,0,1,3045,1473Z"/><path class="cls-21" d="M3041.69,1457.11a17.39,17.39,0,0,0,4.83,3.71,25.89,25.89,0,0,0,5.7,2.24,29.5,29.5,0,0,0,6.05.92c1,.07,2,0,3.05,0s2-.17,3-.29c-2-.1-4-.16-6-.42a44.92,44.92,0,0,1-5.89-1.09,36.49,36.49,0,0,1-5.62-2A24.68,24.68,0,0,1,3041.69,1457.11Z"/><path class="cls-25" d="M3298,1397.54c-6.6,0-13.21,0-19.81-.11l-19.8-.28q-9.43-.18-18.86-.5c.64-6.45,1.15-12.91,1.47-19.38.3-6.8.59-13.59.56-20.38s-.08-13.59-.28-20.38-.57-13.57-1.14-20.33c.16,6.78.29,13.57.26,20.35s0,13.56-.21,20.34-.41,13.55-.8,20.31-1,13.51-1.71,20.23l-.1,1,.95,0q9.93.27,19.83.36c6.61.06,13.22.12,19.83,0,13.22-.13,26.44-.48,39.63-1.31C3311.16,1397.5,3304.56,1397.59,3298,1397.54Z"/><path class="cls-10" d="M2934.31,1394.67c-.89-1.85-16.49.84-16.65-.27s15.35-8.89,15-10.74c-.45-2.06-16.86,3.48-18,2.72s13.51-12.8,10.76-14.33c-2.09-1.16-12,5.67-16.69,9a4.75,4.75,0,0,0-1.89,4.75l6.32,37.46a6.52,6.52,0,0,0,6.83,5.42l.56,0-.89-20.3c4.7-.16,13.49-.7,12.73-2.43s-8.27-2.8-13-3.39l0-.37C2919.45,1401.47,2935.11,1396.34,2934.31,1394.67Z"/><path class="cls-30" d="M2717.41,1722.1H2311.1a66.59,66.59,0,0,1-66.62-66.56V1471.75a43,43,0,0,0-43-43h0a43,43,0,0,0-43,43v188.52c0,82.54,67,149.45,149.57,149.45h411.19A813.79,813.79,0,0,1,2717.41,1722.1Z"/><path class="cls-31" d="M2815.57,1722.1c-.35,21.91-.1,54.8.36,87.62h206.86V1722.1Z"/><path class="cls-11" d="M3151.2,1429.28l306,2.19a53.51,53.51,0,0,1,53.53,53.49v188.61a136.2,136.2,0,0,1-136.26,136.15H3057.27s63-109.73,63-112.87S3151.2,1429.28,3151.2,1429.28Z"/><path class="cls-30" d="M3155.06,1428.75h0a43,43,0,0,0-43,43v183.79c0,1.26,0,2.52-.11,3.76v0h0a66.59,66.59,0,0,1-66.51,62.76h-90.94c2.7,26.17,6.08,57.36,9.41,87.62h84.67a149.5,149.5,0,0,0,149.56-149.45V1471.75A43,43,0,0,0,3155.06,1428.75Z"/><path class="cls-32" d="M2960.13,1775.54c-1.53-14.18-3.52-32.6-5.67-53.44h0c-3.86-40.93-7.85-67.84-3.56-65,14.77-5.34,106.35-.85,161,2.21h0c.33-9,0-148.63.1-155.91-359,29.88-279.92,91.35-246.25,303.57h0l.57,2.72h0c14.6,70.18,28.38,127.94,28.38,127.94s52.49,2.1,82.93-5.24C2977.69,1932.74,2968.19,1849.85,2960.13,1775.54Z"/><path class="cls-33" d="M2355,1981.29l43.24-26.66,37.35,22.55-13,9.28-45.29,6.38s-17.67-2.26-18.45-2.78S2355,1981.29,2355,1981.29Z"/><path class="cls-34" d="M2355,1981.29l-11,7a6,6,0,0,0,3.18,11.07l83,.39a5.3,5.3,0,0,0,5.33-5.27l.08-17.35C2380.24,1994.5,2361.18,1989.06,2355,1981.29Z"/><path class="cls-10" d="M2402.17,1981.29l43.24-26.66,37.35,22.55-13.05,9.28-45.29,6.38s-17.67-2.26-18.45-2.78S2402.17,1981.29,2402.17,1981.29Z"/><path class="cls-34" d="M2402.17,1981.29l-11,7a6,6,0,0,0,3.18,11.07l83,.39a5.3,5.3,0,0,0,5.33-5.27l.08-17.35C2427.42,1994.5,2408.36,1989.06,2402.17,1981.29Z"/><path class="cls-23" d="M2634,1219.61c22.3-15.62,10.46-21.89,23.56-35.47,10.2-10.58,13.38-18.49,13.18-26.23.25-7.74-2.86-15.67-13-26.33-13-13.67-1.12-19.85-23.3-35.64s-45.74,22.49-45.74,22.49l-24.32,30,4.55,15.58-9.53,30.36S2611.75,1235.22,2634,1219.61Z"/><path class="cls-35" d="M2425.66,1517s-92.38,34.62-97.63,61.89,32.54,373.42,48.81,390.2c0,0,33.67,9.44,60.14-5.25s13.87-129,13.87-132.16,29.65-171,29.52-177.27,48.15-81.81,59.7-92.3,30.19-61.62,30.19-61.62Z"/><path class="cls-13" d="M2697.8,1491.11s7.19,90.52-18.11,122.78-168.48,33-168.48,33l-28.45,330.33s-38.05-2.35-62.46-7.07c0,0-20.1-364.17,5.88-388.56s144.08-81,144.08-81Z"/><path class="cls-23" d="M2548.75,1058s-38.46-14.67-61.18,17.66c-17.4,24.76-13.76,58.63,7.42,80.25l8.57,8.75s35-37.64,35.38-39.45S2548.75,1058,2548.75,1058Z"/><path class="cls-10" d="M2522.68,1243.79s54.15-10,79.05-9.12-15.09,65.54-15.09,65.54l-40.67.9s-24.93-27.82-23.29-31.06-.08-24.46-.08-24.46Z"/><path class="cls-10" d="M2583.63,1189.73l9.72,44.56s-15,24.27-51.76,9.3c0,0,5.25-8.47,1.37-27.45C2539,1196.75,2583.63,1189.73,2583.63,1189.73Z"/><path class="cls-19" d="M2583.63,1189.73l4.57,20.82c-5.5,14.3-19.44,23-44.07,23.55a58.76,58.76,0,0,0-1.17-18C2539,1196.75,2583.63,1189.73,2583.63,1189.73Z"/><path class="cls-21" d="M2500.27,1149.17c2.34,7.31-.5,14.76-6.36,16.64s-12.51-2.54-14.85-9.86.5-14.76,6.36-16.64S2497.93,1141.85,2500.27,1149.17Z"/><path class="cls-10" d="M2499.09,1190.82a57.77,57.77,0,0,1-3.7-10,110.19,110.19,0,0,1-3.83-27.72c0-1.83-.18-3.65-.35-5.46a59.47,59.47,0,1,1,118.49-1.15,12.88,12.88,0,0,1,11.62,0c6.79,3.68,8.56,13.55,3.95,22s-13.85,12.38-20.65,8.69a11.42,11.42,0,0,1-2.52-1.88c-5.2,28.78-30.73,49.34-59.22,46.66a53.37,53.37,0,0,1-34.93-17.81,25.93,25.93,0,0,1-1.86-2A51.71,51.71,0,0,1,2499.09,1190.82Z"/><path class="cls-21" d="M2537.16,1140.25a36.43,36.43,0,0,1,.86,10.16,28.21,28.21,0,0,1-.73,5.18,13.23,13.23,0,0,1-2.34,5.12l-.56.58-.49.49a6.13,6.13,0,0,0-.67.68,3.83,3.83,0,0,0-.81,1.56,4.55,4.55,0,0,0,.77,3.61c1.56,2.42,4.58,4,7.79,5a11.53,11.53,0,0,1-9.8-3.45,7,7,0,0,1-1.77-5.75,5.5,5.5,0,0,1,.49-1.55,6.1,6.1,0,0,1,.81-1.38,9.5,9.5,0,0,1,1.06-1.13,3.9,3.9,0,0,0,.38-.4l.31-.33a12.53,12.53,0,0,0,1.89-3.88,42.14,42.14,0,0,0,1.17-4.65C2536.14,1146.89,2536.61,1143.61,2537.16,1140.25Z"/><path class="cls-22" d="M2556.07,1147.47a5.19,5.19,0,1,0,5.65-4.68A5.18,5.18,0,0,0,2556.07,1147.47Z"/><path class="cls-22" d="M2511.41,1146.21a5.19,5.19,0,1,0,5.65-4.68A5.18,5.18,0,0,0,2511.41,1146.21Z"/><path class="cls-36" d="M2552.88,1186.79a17.46,17.46,0,0,0-14.53.42s-7-5.48-13.41-1.61c0,0,1.58,11.46,14,12S2552.88,1186.79,2552.88,1186.79Z"/><path class="cls-21" d="M2559.76,1183.46a36.12,36.12,0,0,1-4.7,2.63,37.68,37.68,0,0,1-4.95,2,32.2,32.2,0,0,1-10.41,1.65,27.33,27.33,0,0,1-10.25-2.23,38.6,38.6,0,0,1-9-5.73,31.73,31.73,0,0,0,3.95,3.73,29.21,29.21,0,0,0,4.62,3,25.48,25.48,0,0,0,5.17,1.92,26.83,26.83,0,0,0,5.49.72,28.5,28.5,0,0,0,10.79-2A31,31,0,0,0,2559.76,1183.46Z"/><path class="cls-23" d="M2551.25,1135a53,53,0,0,1,7.78-.74,26.41,26.41,0,0,1,7.16.85,24.58,24.58,0,0,1,6.61,2.79c1.13.53,2.07,1.38,3.19,2.05s2.05,1.63,3.26,2.38a20.78,20.78,0,0,0-1.79-3.75,17.85,17.85,0,0,0-2.72-3.24,16.63,16.63,0,0,0-7.53-4.18,17.52,17.52,0,0,0-8.6-.08A16,16,0,0,0,2551.25,1135Z"/><path class="cls-23" d="M2528.25,1134.3a16,16,0,0,0-7-4.52,17.53,17.53,0,0,0-8.58-.67,16.72,16.72,0,0,0-7.86,3.53,17.56,17.56,0,0,0-3,3,21.68,21.68,0,0,0-2.11,3.58c1.27-.64,2.31-1.44,3.45-2.08s2.18-1.34,3.36-1.78a24.5,24.5,0,0,1,6.82-2.21,26.23,26.23,0,0,1,7.21-.24A53.87,53.87,0,0,1,2528.25,1134.3Z"/><path class="cls-10" d="M2461.14,1349.2s-4.93,122.69-18.74,141.91l75.94-17.25V1340.33Z"/><path class="cls-37" d="M2493.5,1366s10.57,30.88,12.49,47.29c4.77,40.73-.41,69.46-8.85,92.65-11.84,32.52,84.81,20.69,86.79,19.71s84.81-33,84.81-33l15.78-45.82V1366l-4.44-37Z"/><path class="cls-10" d="M2725,1329l-60.82,20.69s10.52,97.23,7.23,111c-2.81,11.79-46.91,35.24-74.86,48.37a28.51,28.51,0,0,1-14.41,2.61c-15.92-1.31-44.14-3.77-48.57-4.08-7-.48-26.09,0-26.7,2.45-.57,2.26,14.94-.23,25,1.85,1.42.29.66,2.18.33,2.19-5.34.2-19.07.78-23.6,2.29-5.54,1.84,14.06.38,24.65,2.33.75.13,1.34,2.23.8,2.77-1.26,1.24-5.87,2.33-18.52,3.62-21.11,2.16-.46,4.77-.46,4.77s1.9-.54,20-3c.67-.09,1.41,1.79.41,2.67a31.34,31.34,0,0,1-11.26,6.17c-6.79,2-1.85,3.76-1.85,3.76s12.85-3.82,20.06-4.36c5.4-.41,30.84,1.66,41.27,2.26l.8-1.79c14.15-.41,127-3.34,137.84-73.22C2733.5,1390.42,2725,1329,2725,1329Z"/><path class="cls-23" d="M2282.89,1398.63H2476.7l55,134H2625a4.72,4.72,0,0,1,4.73,4.72h0a4.72,4.72,0,0,1-4.73,4.72H2347.3Z"/><path class="cls-26" d="M2379,1475.11c1.14,5.71,6.12,9.53,11.12,8.53s8.13-6.44,7-12.15S2391,1462,2386,1463,2377.85,1469.4,2379,1475.11Z"/><path class="cls-37" d="M2522.68,1243.79s36.81,42.93,79.05-9.12c0,0,46.15-3.75,80.17,20.39s54.4,78.37,54.4,78.37-61.64,31-76.93,32.52H2488.26s-26.13-2-51.28-14.78C2437,1351.17,2441.32,1265,2522.68,1243.79Z"/><path class="cls-6" d="M2632,1301.11c1.77,5.27,3.33,10.6,4.9,15.92s3,10.69,4.44,16.06,2.72,10.78,3.9,16.22,2.32,10.89,3.19,16.4l-1.3-1.3a33.45,33.45,0,0,0,5.65,0c1.94-.13,3.89-.41,5.83-.69,3.88-.69,7.77-1.43,11.59-2.51l2.87-.76,2.85-.87c1.89-.59,3.8-1.14,5.68-1.81l5.64-2,5.57-2.15c3.73-1.41,7.38-3.05,11.07-4.56l10.91-5,10.81-5.22c3.56-1.84,7.13-3.67,10.73-5.45-3.39,2.14-6.82,4.24-10.25,6.32s-7,4-10.48,6-7.13,3.71-10.73,5.51l-5.48,2.54c-1.83.85-3.65,1.71-5.53,2.44a173.36,173.36,0,0,1-22.85,8l-2.93.79-3,.67c-2,.5-4,.8-6,1.15s-4,.56-6.11.68a33.85,33.85,0,0,1-6.36,0l-1.12-.13-.18-1.18c-1.66-10.89-3.88-21.75-6.19-32.58l-3.52-16.25Z"/><path class="cls-6" d="M2501.88,1288.64q-3.63,9.45-6.56,19a163.66,163.66,0,0,0-4.76,19.36,90.41,90.41,0,0,0-1.31,9.82,70.71,70.71,0,0,0-.25,9.87c.24,6.58,10,37.55,12.88,43.68-4.06-5.44-14.68-36.67-15.4-43.48a70.84,70.84,0,0,1,.89-20.46c.64-3.35,1.39-6.68,2.32-10s2-6.5,3.24-9.66A103.83,103.83,0,0,1,2501.88,1288.64Z"/><path class="cls-23" d="M2609.7,1146.44s-61.3-21.7-86.88-67.52c0,0,1.7-40.21,58-23.69C2619.89,1066.68,2633.52,1119.51,2609.7,1146.44Z"/><path class="cls-21" d="M3182,1149.27c-4.59.75-9.13,1.24-13.66,1.88a129.06,129.06,0,0,0-13.49,2.44c4-2.42,8.68-3.53,13.25-4.2A52.59,52.59,0,0,1,3182,1149.27Z"/><polygon class="cls-12" points="2280.85 2000 2262.57 2000 2308.16 1821 2325.33 1825.36 2280.85 2000"/><polygon class="cls-12" points="3363.01 1999.89 3381.28 1999.89 3335.69 1820.88 3318.53 1825.25 3363.01 1999.89"/><polygon class="cls-12" points="3168.92 1999.89 3150.64 1999.89 3196.23 1820.88 3213.39 1825.25 3168.92 1999.89"/><path class="cls-29" d="M2991.93,1362.08l6.66,132.83a3.25,3.25,0,0,1-3.53,3.4l-6.19-.54a3.26,3.26,0,0,1-3-3.14L2982,1361.09A10.27,10.27,0,0,1,2991.93,1362.08Z"/><rect class="cls-17" x="638.39" y="1588.15" width="388.04" height="159.61"/><path class="cls-15" d="M340.28,1251.74c4.84.34,388.78,0,388.78,0V1616H480.18L346.94,1482.88Z"/><path class="cls-11" d="M1018.64,1456.4s-266.27,15.9-266.27,0v69.27S882.59,1549,897.25,1549s82.88,36.13,91.92,39.14,28.47-77.67,29.47-78.36S1018.64,1456.4,1018.64,1456.4Z"/><path class="cls-16" d="M320,1251.74h40.59a14.87,14.87,0,0,1,14.87,14.87v245.2a14.87,14.87,0,0,1-14.87,14.87H320a14.86,14.86,0,0,1-14.86-14.86v-245.2A14.87,14.87,0,0,1,320,1251.74Z"/><path class="cls-11" d="M628.86,1456.4H314.42a51.22,51.22,0,0,0-51.24,51.2v180.49a130.35,130.35,0,0,0,130.41,130.3l323.76,2s-22.48-6-26.17-12.45c-15.24-26.64-54.29-95.14-54.29-97.56C636.89,1707.36,628.86,1456.4,628.86,1456.4Z"/><path class="cls-31" d="M977.46,1497.56v175.88a63.73,63.73,0,0,1-63.76,63.71H733.8a63.73,63.73,0,0,1-63.75-63.71V1497.56a41.18,41.18,0,0,0-41.19-41.16h0a41.18,41.18,0,0,0-41.19,41.16V1678a143.07,143.07,0,0,0,143.14,143H916.7a143.07,143.07,0,0,0,143.13-143V1497.56a41.18,41.18,0,0,0-41.19-41.16h0A41.17,41.17,0,0,0,977.46,1497.56Z"/><polygon class="cls-10" points="982.6 1904.67 989.14 1957.21 1024.41 1959.95 1023.86 1911.22 982.6 1904.67"/><path class="cls-12" d="M1078,1998.41l-96.33.65a3.7,3.7,0,0,1-3.78-3.7l0-2.77a3.84,3.84,0,0,1,3.85-3.75l96.33-.65a3.7,3.7,0,0,1,3.78,3.7l0,2.77A3.83,3.83,0,0,1,1078,1998.41Z"/><path class="cls-27" d="M983,1957.79l-3.69,28.44c-.46,3.51,1.52,6.68,4.16,6.66l91.61-.62a6.8,6.8,0,0,0,6-4.21c1.3-2.81,1.6-7-2.45-12.66-8.11-11.27-35-13.85-48.12-23.42l-42.68.28C985.43,1952.28,983.38,1954.62,983,1957.79Z"/><path class="cls-6" d="M1023.86,1968.52h0a1.87,1.87,0,0,1-.5-2.31c1.83-3.91,7.54-13.42,19-11.55a1.56,1.56,0,0,1,1,1.84v0c-.12.86-.72,1.43-1.36,1.32-10.23-1.64-15.09,6.75-16.57,10C1025.05,1968.57,1024.41,1968.85,1023.86,1968.52Z"/><path class="cls-6" d="M1033.34,1972.12h0a1.88,1.88,0,0,1-.5-2.32c1.84-3.9,7.54-13.42,19-11.55a1.57,1.57,0,0,1,1,1.85v0c-.12.85-.72,1.42-1.36,1.32-10.23-1.64-15.09,6.74-16.57,10A1.06,1.06,0,0,1,1033.34,1972.12Z"/><path class="cls-6" d="M1042.16,1975.47h0a1.87,1.87,0,0,1-.5-2.31c1.83-3.91,7.54-13.43,19-11.55.66.1,1.1,1,1,1.84v0c-.12.86-.72,1.42-1.36,1.32-10.23-1.64-15.09,6.75-16.57,10C1043.35,1975.52,1042.71,1975.8,1042.16,1975.47Z"/><path class="cls-14" d="M1007.88,1992.73c-7-22.91-19.43-25.36-26.23-24.79l-2.38,18.29c-.46,3.51,1.52,6.68,4.16,6.66Z"/><polygon class="cls-10" points="915.44 1905.79 931.03 1956.49 966.91 1956.74 960.66 1919.72 915.44 1905.79"/><path class="cls-23" d="M597.48,1136.74s-10.72-54,20.6-73.06,63.61-15.64,85.18-2.85,33.13,55.19,22.31,78.81l-72.28-25.43Z"/><path class="cls-12" d="M1018.46,1999.35l-96.33.65a3.7,3.7,0,0,1-3.78-3.7l0-2.77a3.84,3.84,0,0,1,3.85-3.75l96.33-.65a3.7,3.7,0,0,1,3.78,3.7l0,2.77A3.82,3.82,0,0,1,1018.46,1999.35Z"/><path class="cls-38" d="M923.44,1958.73l-3.7,28.44c-.45,3.51,1.53,6.68,4.16,6.66l91.61-.62a6.79,6.79,0,0,0,6-4.21c1.31-2.81,1.6-7-2.45-12.66-8.1-11.27-35-13.85-48.12-23.42l-42.68.29C925.9,1953.22,923.85,1955.56,923.44,1958.73Z"/><path class="cls-6" d="M964.33,1969.46h0a1.87,1.87,0,0,1-.5-2.31c1.83-3.91,7.54-13.42,19-11.55a1.57,1.57,0,0,1,1,1.85v0c-.12.86-.72,1.42-1.36,1.32-10.23-1.64-15.09,6.75-16.57,10C965.52,1969.51,964.88,1969.79,964.33,1969.46Z"/><path class="cls-6" d="M973.81,1973.06h0a1.89,1.89,0,0,1-.5-2.32c1.84-3.9,7.54-13.42,19-11.55a1.57,1.57,0,0,1,1,1.85v0c-.12.85-.72,1.42-1.35,1.32-10.24-1.64-15.1,6.74-16.58,10A1.06,1.06,0,0,1,973.81,1973.06Z"/><path class="cls-6" d="M982.63,1976.41h0a1.87,1.87,0,0,1-.5-2.31c1.84-3.91,7.54-13.43,19-11.56a1.58,1.58,0,0,1,1,1.85v0c-.12.86-.72,1.42-1.36,1.32-10.23-1.64-15.09,6.75-16.57,10C983.82,1976.46,983.18,1976.74,982.63,1976.41Z"/><path class="cls-14" d="M948.35,1993.67c-7-22.91-19.43-25.37-26.23-24.79l-2.38,18.29c-.45,3.51,1.53,6.68,4.16,6.66Z"/><polygon class="cls-10" points="630.59 1185.92 625.36 1246.28 680.15 1243.73 673.83 1190.29 630.59 1185.92"/><path class="cls-21" d="M676.84,1215.7l-3-25.41-43.24-4.37-1.81,20.9C637.38,1215.15,652.84,1223.78,676.84,1215.7Z"/><path class="cls-21" d="M710.43,1145.26c-3.29,6.62-1.55,14.07,3.9,16.63s12.54-.73,15.84-7.35,1.55-14.07-3.9-16.64S713.73,1138.63,710.43,1145.26Z"/><path class="cls-10" d="M705.83,1184.91a55.44,55.44,0,0,0,5-9,103.13,103.13,0,0,0,7.55-25.77c.29-1.73.68-3.43,1.1-5.14a55.32,55.32,0,0,0,1-21.9c-3.8-24.7-24.24-44.39-49.69-47.81-34.28-4.6-64.48,20.07-66.62,52.75a12.92,12.92,0,0,0-11.31-1.56c-7.13,2.58-10.22,11.7-6.9,20.36s11.79,13.59,18.92,11a11.5,11.5,0,0,0,2.73-1.45c1.1,28,23.13,50.9,51.28,52.18a53.49,53.49,0,0,0,36.5-12.21,24.82,24.82,0,0,0,2.09-1.68A49.34,49.34,0,0,0,705.83,1184.91Z"/><path class="cls-22" d="M656.28,1136.17a5.11,5.11,0,1,1-4.86-5.19A5.05,5.05,0,0,1,656.28,1136.17Z"/><path class="cls-22" d="M700,1141a5.07,5.07,0,0,1-5.35,4.73A5,5,0,1,1,700,1141Z"/><path class="cls-23" d="M662.7,1125a53.09,53.09,0,0,0-7.48-1.74,26.4,26.4,0,0,0-7.09-.15,24.57,24.57,0,0,0-6.83,1.76c-1.18.35-2.21,1-3.4,1.52s-2.22,1.26-3.5,1.81a20.25,20.25,0,0,1,2.27-3.31,17.48,17.48,0,0,1,11-5.67,17.67,17.67,0,0,1,8.4,1.09A15.65,15.65,0,0,1,662.7,1125Z"/><path class="cls-12" d="M375.54,1817.13H978.08a3.86,3.86,0,0,1,3.86,3.86v10.54a3.87,3.87,0,0,1-3.87,3.87H375.54a3.87,3.87,0,0,1-3.87-3.87V1821A3.87,3.87,0,0,1,375.54,1817.13Z"/><path class="cls-23" d="M685.21,1127.42a15.78,15.78,0,0,1,7.44-3.36,17.72,17.72,0,0,1,8.45.52,16.61,16.61,0,0,1,7.18,4.4,17.15,17.15,0,0,1,2.49,3.24,20.64,20.64,0,0,1,1.56,3.67c-1.15-.78-2.06-1.67-3.07-2.43s-2-1.57-3-2.14a24.58,24.58,0,0,0-6.35-3,26.3,26.3,0,0,0-7-1.19A53.31,53.31,0,0,0,685.21,1127.42Z"/><path class="cls-23" d="M605,1128.81c-3.25-3-5.83-2.84-5.83-2.84l2.21-17.27,6-10.23s22.82-27.26,23.62-27.93,17.71-9.12,18.75-9.55,24.1,3.86,24.1,3.86,41.12-6.56,33.4,13.92S669.23,1109,667.74,1108c5-4.46,6-17.64,6-17.64C651.8,1111.79,611.27,1126.59,605,1128.81Z"/><path class="cls-21" d="M674.35,1135.76a60.3,60.3,0,0,1,3.92,7.3,56.67,56.67,0,0,1,3,7.76A21.72,21.72,0,0,1,682,1155a7.46,7.46,0,0,1,0,1.15c0,.2-.09.41-.13.62a3.07,3.07,0,0,1-.31.67l-.26.33-.23.18c-.14.12-.29.25-.44.36a10.47,10.47,0,0,1-.93.6,20.13,20.13,0,0,1-3.93,1.74,26.76,26.76,0,0,1-4.12,1,46,46,0,0,0,7.3-3.88c.27-.19.51-.4.76-.6l.35-.32.17-.16a.25.25,0,0,1,0-.09,3.12,3.12,0,0,0,.13-1.55,21.65,21.65,0,0,0-.83-3.84c-.73-2.59-1.65-5.15-2.54-7.73S675.19,1138.39,674.35,1135.76Z"/><path class="cls-39" d="M685.91,1231.4s42.9,1.81,65.33,29.11,86,295,86,295l-71.54-7.65s-93-127.18-93-130.45S685.91,1231.4,685.91,1231.4Z"/><path class="cls-10" d="M601.59,1231.83s82.13-.17,83.39-.08,7.57-.59,9.89,1.84,6.32,15.8-5.1,22.35,12.86,6.82-18.13,12.28-21.7,12.82-45.19,3.27-26.51-5.46-27.32-13.92S601.59,1231.83,601.59,1231.83Z"/><path class="cls-23" d="M764.82,1353.37c-4.77-43-16.29-71.78-29.21-91.09a69.86,69.86,0,0,0-40.74-28.69c-.07.28-4.16,15.54-25.26,18-21.31,2.46-67.2-19.79-68-19.74h0c-23.71,1.48-44.21,5.93-54.89,18.39C525.39,1275,454.92,1448.47,456.56,1473s20.49,24.5,20.49,24.5l193,.09V1542l140,9.56C806.14,1548.93,778.31,1475.09,764.82,1353.37Z"/><path class="cls-26" d="M780.32,1336.51c1.23,0,51-30.07,51-30.07l9.3,2-3.3,2.43,5.56-1.39,9,1.39s-29.89,35.25-30.39,36.25-13.56,6-14.57,6.53S780.32,1336.51,780.32,1336.51Z"/><path class="cls-26" d="M700.75,1312.46l4.52-2.82,2.07,1.41v-2.64l2.83-2,72.33,28.61s-23.17,14.68-23.93,14.11-42-8.09-42.75-9.22S700.75,1312.46,700.75,1312.46Z"/><path class="cls-24" d="M701.89,1311.13l82,26.53L850,1308.89a5.69,5.69,0,0,1,7.93,5.85l-12.59,112.6a5.68,5.68,0,0,1-3,4.39l-63.48,33.44-57.5-21.27-1.48-2.17-7.45-1.13-24.11-8.92a5.11,5.11,0,0,1-3.31-5.22l9.48-110.41A5.68,5.68,0,0,1,701.89,1311.13Z"/><path class="cls-40" d="M701.89,1311.12a5.69,5.69,0,0,0-7.42,4.93L685,1426.31a5.3,5.3,0,0,0,3.44,5.42l24,8.87,7.45,1.13,1.48,2.17L760,1458.21c8.9-1.72,17.73-3.37,17.73-3.37l6.13-117.18Z"/><polygon class="cls-40" points="796.11 1351.11 847.23 1328.77 845.6 1351.99 795.49 1375.2 796.11 1351.11"/><path class="cls-18" d="M823.72,1542.23s173.1-5.46,212.43,31.66,1.1,311.2-5.46,336.82c0,0-24,22.34-52.44,13.61s-17.48-131-17.48-131,3.27-116.81-1.1-133.19-64.46-28.38-64.46-28.38-92.86-64.41-87.4-64.41S823.72,1542.23,823.72,1542.23Z"/><path class="cls-32" d="M670.05,1537s231.72-27.5,263.4,77.3,55.72,312.22,55.72,312.22-30.59,18.56-72.1,0c0,0-58.73-222.7-80.71-244.54s-166.31-8.52-166.31-8.52Z"/><path class="cls-6" d="M729.61,1470.35a140.26,140.26,0,0,0-3.56-14.79c-1.44-4.87-3-9.66-4.95-14.39l-.21-.53-.58,0-154.62-7.74a68.33,68.33,0,0,1,3.57-13.8c1.64-4.68,3.51-9.28,5.47-13.85,3.95-9.12,8.28-18.07,12.76-27,9-17.74,18.55-35.2,28.51-52.42l-.16-.1c-10.08,17.16-19.76,34.55-28.88,52.25-4.55,8.85-8.94,17.79-13,26.9-2,4.56-3.91,9.17-5.6,13.86a67.21,67.21,0,0,0-3.77,14.53l-.06.5.52,0,154.52,8.58c1.78,4.45,3.32,9,4.69,13.67a139,139,0,0,1,3.5,14.6,89.88,89.88,0,0,1,1.57,14.87,50.4,50.4,0,0,1-1.57,14.08L682,1498.29l-23.22-.65-23.23-.39v.22l23.21.92,23.21,1,46.43,1.92.63,0,.19-.61a51,51,0,0,0,2-15.21A91.63,91.63,0,0,0,729.61,1470.35Z"/><path class="cls-41" d="M778.54,1336.05l-5.93,123.47,9-1.31L788,1336.05S783.25,1332.73,778.54,1336.05Z"/><path class="cls-10" d="M785.14,1452.85c-11.47,5.05-34.75,1.38-34.75,1.38l-17.62-6.12c-2.47,1.67-5,3.37-7.46,5,.25.8.5,1.61.74,2.42a140.26,140.26,0,0,1,3.56,14.79,91.63,91.63,0,0,1,1.61,15.16c0,.84,0,1.67-.06,2.51l2.48-.92c3,.6,8.43.09,16-1.07,8.58-1.1,22.16-3,28.09-4.7a9.46,9.46,0,0,0,6.92-6.48c3.38-2.06,3.7-5.9,3.29-9a5,5,0,0,0,.25-.59c1.65-5.15.73-6.49-.12-7a4.45,4.45,0,0,0,1.21-2C791.15,1448.62,785.14,1452.85,785.14,1452.85Z"/><path class="cls-21" d="M788,1465.48a17.91,17.91,0,0,1-5,3.86,27.52,27.52,0,0,1-5.93,2.34,31.37,31.37,0,0,1-6.3,1c-1.06.07-2.12,0-3.17,0s-2.11-.18-3.16-.3c2.11-.11,4.2-.18,6.27-.44a46.48,46.48,0,0,0,6.12-1.14,36.66,36.66,0,0,0,5.85-2.08A24.92,24.92,0,0,0,788,1465.48Z"/><path class="cls-21" d="M784.64,1474.87a18.06,18.06,0,0,1-5.31,3.45,27.05,27.05,0,0,1-6.1,1.86,31.48,31.48,0,0,1-6.35.46c-1.06,0-2.12-.15-3.17-.22s-2.09-.34-3.12-.55c2.11.06,4.2.16,6.28.06a47.4,47.4,0,0,0,6.19-.65,37.7,37.7,0,0,0,6-1.62A25.54,25.54,0,0,0,784.64,1474.87Z"/><path class="cls-21" d="M788,1458.29a17.91,17.91,0,0,1-5,3.86,27.52,27.52,0,0,1-5.93,2.34,32.09,32.09,0,0,1-6.3,1c-1.06.08-2.12,0-3.17,0s-2.11-.17-3.16-.3c2.11-.1,4.2-.17,6.27-.43a48.18,48.18,0,0,0,6.12-1.14,38.73,38.73,0,0,0,5.85-2.08A25.76,25.76,0,0,0,788,1458.29Z"/><path class="cls-21" d="M653.63,1171.81c4.81.56,9.49,1.38,14.2,2a136,136,0,0,0,14.2,1.44c-4.71,1.26-9.7,1-14.46.38A54.89,54.89,0,0,1,653.63,1171.81Z"/><polygon class="cls-12" points="384.04 1999.65 366.54 1999.65 410.17 1828.34 426.6 1832.52 384.04 1999.65"/><polygon class="cls-12" points="704.81 1999.65 687.32 1999.65 730.95 1828.34 747.38 1832.52 704.81 1999.65"/><polygon class="cls-12" points="597.13 1999.65 614.62 1999.65 570.99 1828.34 554.56 1832.52 597.13 1999.65"/><rect class="cls-3" x="2598.2" y="629.91" width="537.55" height="30.75"/><rect class="cls-3" x="2677.25" y="891.8" width="537.55" height="30.75"/><rect class="cls-13" x="1249.3" y="609.59" width="15.24" height="1244.24"/><rect class="cls-13" x="1412.55" y="609.59" width="15.24" height="1244.24"/><rect class="cls-13" x="1256.92" y="628.52" width="163.25" height="12.88"/><rect class="cls-13" x="1256.92" y="712.03" width="163.25" height="12.88"/><rect class="cls-13" x="1256.92" y="795.54" width="163.25" height="12.88"/><rect class="cls-13" x="1256.92" y="879.05" width="163.25" height="12.88"/><rect class="cls-13" x="1256.92" y="962.56" width="163.25" height="12.88"/><rect class="cls-13" x="1256.92" y="1046.07" width="163.25" height="12.88"/><rect class="cls-13" x="1256.92" y="1129.58" width="163.25" height="12.88"/><rect class="cls-13" x="1256.92" y="1213.08" width="163.25" height="12.88"/><rect class="cls-13" x="1256.92" y="1296.59" width="163.25" height="12.88"/><rect class="cls-13" x="1256.92" y="1380.1" width="163.25" height="12.88"/><rect class="cls-13" x="1256.92" y="1463.61" width="163.25" height="12.88"/><rect class="cls-13" x="1256.92" y="1547.12" width="163.25" height="12.88"/><rect class="cls-13" x="1256.92" y="1630.63" width="163.25" height="12.88"/><ellipse class="cls-3" cx="3318.53" cy="450.71" rx="147.57" ry="147.46"/><path class="cls-6" d="M3448.26,442.57a130,130,0,1,1-137.87-121.49A129.92,129.92,0,0,1,3448.26,442.57Z"/><rect class="cls-9" x="3211.07" y="428.18" width="3.36" height="43.76" transform="translate(2762.7 3662.81) rotate(-90)"/><rect class="cls-9" x="3422.89" y="428.18" width="3.36" height="43.76" transform="translate(2974.52 3874.63) rotate(-90)"/><rect class="cls-9" x="3316.66" y="324.05" width="3.36" height="43.72"/><rect class="cls-9" x="3316.66" y="534.86" width="3.36" height="43.72"/><path class="cls-9" d="M3322.15,450.71a3.62,3.62,0,1,1-3.62-3.62A3.62,3.62,0,0,1,3322.15,450.71Z"/><path class="cls-9" d="M3318.53,452.33a1.61,1.61,0,0,1-1.15-.48l-65.08-65a1.61,1.61,0,0,1,0-2.29,1.62,1.62,0,0,1,2.29,0l65.08,65a1.62,1.62,0,0,1,0,2.29A1.59,1.59,0,0,1,3318.53,452.33Z"/><path class="cls-9" d="M3339.45,516.43a1.16,1.16,0,0,1-.58-.68l-21-63.49a1.17,1.17,0,1,1,2.23-.74l21,63.49a1.18,1.18,0,0,1-1.65,1.42Z"/></g></g></svg>